# xmcd CD database file
#
# Track frame offsets:
#	183
#	10398
#	21343
#	39628
#	52255
#	72953
#	102850
#	114990
#	132948
#	144703
#	160840
#	174845
#	191248
#	208700
#	221520
#	238188
#	250800
#	269475
#	284208
#	298058
#	319783
#	331673
#
# Disc length: 4606 seconds
#
# Revision: 0
# Processed by: cddbd v1.4b42PL1 Copyright (c) Steve Scherf et al.
# Submitted via: CDex 1.40Beta8
#
DISCID=5e11fc16
DTITLE=Waylon Jennings - The Collection
DYEAR=1988
DGENRE=Country
TTITLE0=Ruby, don't take your love to town
TTITLE1=If I were a carpenter
TTITLE2=Lucille
TTITLE3=The entertainer
TTITLE4=Turn the page
TTITLE5=MacArthur Park
TTITLE6=Folsom Prison Blues
TTITLE7=Angel eyes
TTITLE8=Ladies love outlaws
TTITLE9=Honky tonk heroes
TTITLE10=Waltz me to heaven
TTITLE11=Looking for Suzanne
TTITLE12=The conversation (with Hank Williams Jr)
TTITLE13=Shine
TTITLE14=America
TTITLE15=(I'm a) Ramblin' Man
TTITLE16=I've always been crazy
TTITLE17=Luchenback, Texas
TTITLE18=Come with me
TTITLE19=I ain't living long like this
TTITLE20=Never been to Spain
TTITLE21=Delta Dawn
EXTD=YEAR: 1988 ID3G: 2
EXTT0=
EXTT1=
EXTT2=
EXTT3=
EXTT4=
EXTT5=
EXTT6=
EXTT7=
EXTT8=
EXTT9=
EXTT10=
EXTT11=
EXTT12=
EXTT13=
EXTT14=
EXTT15=
EXTT16=
EXTT17=
EXTT18=
EXTT19=
EXTT20=
EXTT21=
PLAYORDER=
